<svg xmlns="http://www.w3.org/2000/svg" xmlns:xlink="http://www.w3.org/1999/xlink" width="150" zoomAndPan="magnify" viewBox="0 0 112.5 30.000001" height="40" preserveAspectRatio="xMidYMid meet" version="1.0"><defs><g/><clipPath id="ac3b8c3087"><path d="M 1.574219 0 L 110.445312 0 L 110.445312 29.03125 L 1.574219 29.03125 Z M 1.574219 0 " clip-rule="nonzero"/></clipPath><clipPath id="79e4f97cc7"><path d="M 44 0.324219 L 70 0.324219 L 70 24.011719 L 44 24.011719 Z M 44 0.324219 " clip-rule="nonzero"/></clipPath><clipPath id="5fc77670d2"><rect x="0" width="26" y="0" height="25"/></clipPath><clipPath id="ac316edb47"><path d="M 0.519531 1 L 47 1 L 47 23 L 0.519531 23 Z M 0.519531 1 " clip-rule="nonzero"/></clipPath><clipPath id="7d323df3eb"><rect x="0" width="47" y="0" height="22"/></clipPath><clipPath id="433a0c781f"><path d="M 70 1 L 101.320312 1 L 101.320312 23 L 70 23 Z M 70 1 " clip-rule="nonzero"/></clipPath><clipPath id="48e4dea03f"><rect x="0" width="32" y="0" height="22"/></clipPath><clipPath id="fe7f93ccf4"><rect x="0" width="102" y="0" height="25"/></clipPath></defs><g clip-path="url(#ac3b8c3087)"><path fill="#ffffff" d="M 1.574219 0 L 110.445312 0 L 110.445312 29.03125 L 1.574219 29.03125 Z M 1.574219 0 " fill-opacity="1" fill-rule="nonzero"/><path fill="#ffffff" d="M 1.574219 0 L 110.445312 0 L 110.445312 29.03125 L 1.574219 29.03125 Z M 1.574219 0 " fill-opacity="1" fill-rule="nonzero"/></g><g transform="matrix(1, 0, 0, 1, 5, 2)"><g clip-path="url(#fe7f93ccf4)"><g clip-path="url(#79e4f97cc7)"><g transform="matrix(1, 0, 0, 1, 44, 0.000000000000005773)"><g clip-path="url(#5fc77670d2)"><g fill="#6344fe" fill-opacity="1"><g transform="translate(0.633277, 19.046415)"><g><path d="M 12.84375 0 L 11.46875 -3.078125 L 4.6875 -3.078125 L 3.296875 0 L 1.25 0 L 7.03125 -12.828125 L 9.25 -12.828125 L 15.015625 0 Z M 7.09375 -8.359375 L 5.546875 -4.984375 L 10.609375 -4.984375 L 9.03125 -8.4375 C 8.875 -8.820312 8.71875 -9.203125 8.5625 -9.578125 C 8.40625 -9.960938 8.242188 -10.367188 8.078125 -10.796875 C 7.910156 -10.359375 7.742188 -9.9375 7.578125 -9.53125 C 7.421875 -9.132812 7.257812 -8.742188 7.09375 -8.359375 Z M 7.09375 -8.359375 "/></g></g></g><g fill="#6344fe" fill-opacity="1"><g transform="translate(14.283227, 19.046415)"><g><path d="M 10.46875 0 L 2.71875 0 L 2.71875 -1.90625 L 5.59375 -1.90625 L 5.59375 -10.921875 L 2.71875 -10.921875 L 2.71875 -12.828125 L 10.46875 -12.828125 L 10.46875 -10.921875 L 7.5625 -10.921875 L 7.5625 -1.90625 L 10.46875 -1.90625 Z M 10.46875 0 "/></g></g></g></g></g></g><g clip-path="url(#ac316edb47)"><g transform="matrix(1, 0, 0, 1, -0.000000000000000888, 1)"><g clip-path="url(#7d323df3eb)"><g fill="#000000" fill-opacity="1"><g transform="translate(0.843683, 17.35901)"><g><path d="M 1.6875 0 L 1.6875 -12.609375 L 3.40625 -12.609375 L 3.40625 0 Z M 1.6875 0 "/></g></g></g><g fill="#000000" fill-opacity="1"><g transform="translate(5.934528, 17.35901)"><g><path d="M 7.390625 0 L 7.390625 -6.140625 C 7.390625 -6.773438 7.320312 -7.269531 7.1875 -7.625 C 7.0625 -7.976562 6.863281 -8.234375 6.59375 -8.390625 C 6.320312 -8.546875 5.921875 -8.625 5.390625 -8.625 C 4.609375 -8.625 3.992188 -8.359375 3.546875 -7.828125 C 3.097656 -7.296875 2.875 -6.554688 2.875 -5.609375 L 2.875 0 L 1.265625 0 L 1.265625 -7.609375 C 1.265625 -8.742188 1.25 -9.4375 1.21875 -9.6875 L 2.734375 -9.6875 C 2.742188 -9.65625 2.75 -9.570312 2.75 -9.4375 C 2.757812 -9.3125 2.769531 -9.160156 2.78125 -8.984375 C 2.789062 -8.816406 2.800781 -8.5 2.8125 -8.03125 L 2.84375 -8.03125 C 3.207031 -8.695312 3.628906 -9.164062 4.109375 -9.4375 C 4.597656 -9.71875 5.207031 -9.859375 5.9375 -9.859375 C 7 -9.859375 7.773438 -9.59375 8.265625 -9.0625 C 8.753906 -8.539062 9 -7.671875 9 -6.453125 L 9 0 Z M 7.390625 0 "/></g></g></g><g fill="#000000" fill-opacity="1"><g transform="translate(16.125165, 17.35901)"><g><path d="M 7.390625 0 L 7.390625 -6.140625 C 7.390625 -6.773438 7.320312 -7.269531 7.1875 -7.625 C 7.0625 -7.976562 6.863281 -8.234375 6.59375 -8.390625 C 6.320312 -8.546875 5.921875 -8.625 5.390625 -8.625 C 4.609375 -8.625 3.992188 -8.359375 3.546875 -7.828125 C 3.097656 -7.296875 2.875 -6.554688 2.875 -5.609375 L 2.875 0 L 1.265625 0 L 1.265625 -7.609375 C 1.265625 -8.742188 1.25 -9.4375 1.21875 -9.6875 L 2.734375 -9.6875 C 2.742188 -9.65625 2.75 -9.570312 2.75 -9.4375 C 2.757812 -9.3125 2.769531 -9.160156 2.78125 -8.984375 C 2.789062 -8.816406 2.800781 -8.5 2.8125 -8.03125 L 2.84375 -8.03125 C 3.207031 -8.695312 3.628906 -9.164062 4.109375 -9.4375 C 4.597656 -9.71875 5.207031 -9.859375 5.9375 -9.859375 C 7 -9.859375 7.773438 -9.59375 8.265625 -9.0625 C 8.753906 -8.539062 9 -7.671875 9 -6.453125 L 9 0 Z M 7.390625 0 "/></g></g></g><g fill="#000000" fill-opacity="1"><g transform="translate(26.315801, 17.35901)"><g><path d="M 9.421875 -4.84375 C 9.421875 -3.15625 9.046875 -1.894531 8.296875 -1.0625 C 7.554688 -0.238281 6.476562 0.171875 5.0625 0.171875 C 3.644531 0.171875 2.570312 -0.253906 1.84375 -1.109375 C 1.125 -1.972656 0.765625 -3.21875 0.765625 -4.84375 C 0.765625 -8.1875 2.210938 -9.859375 5.109375 -9.859375 C 6.585938 -9.859375 7.675781 -9.453125 8.375 -8.640625 C 9.070312 -7.828125 9.421875 -6.5625 9.421875 -4.84375 Z M 7.734375 -4.84375 C 7.734375 -6.1875 7.535156 -7.160156 7.140625 -7.765625 C 6.742188 -8.367188 6.078125 -8.671875 5.140625 -8.671875 C 4.191406 -8.671875 3.507812 -8.359375 3.09375 -7.734375 C 2.675781 -7.117188 2.46875 -6.15625 2.46875 -4.84375 C 2.46875 -3.570312 2.671875 -2.613281 3.078125 -1.96875 C 3.492188 -1.332031 4.144531 -1.015625 5.03125 -1.015625 C 6 -1.015625 6.691406 -1.320312 7.109375 -1.9375 C 7.523438 -2.5625 7.734375 -3.53125 7.734375 -4.84375 Z M 7.734375 -4.84375 "/></g></g></g><g fill="#000000" fill-opacity="1"><g transform="translate(36.506438, 17.35901)"><g><path d="M 5.484375 0 L 3.578125 0 L 0.0625 -9.6875 L 1.78125 -9.6875 L 3.90625 -3.390625 C 3.988281 -3.148438 4.195312 -2.441406 4.53125 -1.265625 L 4.84375 -2.3125 L 5.1875 -3.359375 L 7.390625 -9.6875 L 9.09375 -9.6875 Z M 5.484375 0 "/></g></g></g></g></g></g><g clip-path="url(#433a0c781f)"><g transform="matrix(1, 0, 0, 1, 70, 1)"><g clip-path="url(#48e4dea03f)"><g fill="#000000" fill-opacity="1"><g transform="translate(1.282547, 17.359024)"><g><path d="M 4.953125 -0.078125 C 4.421875 0.0664062 3.878906 0.140625 3.328125 0.140625 C 2.035156 0.140625 1.390625 -0.585938 1.390625 -2.046875 L 1.390625 -8.515625 L 0.28125 -8.515625 L 0.28125 -9.6875 L 1.453125 -9.6875 L 1.9375 -11.84375 L 3 -11.84375 L 3 -9.6875 L 4.796875 -9.6875 L 4.796875 -8.515625 L 3 -8.515625 L 3 -2.390625 C 3 -1.929688 3.078125 -1.609375 3.234375 -1.421875 C 3.390625 -1.234375 3.65625 -1.140625 4.03125 -1.140625 C 4.238281 -1.140625 4.546875 -1.179688 4.953125 -1.265625 Z M 4.953125 -0.078125 "/></g></g></g><g fill="#000000" fill-opacity="1"><g transform="translate(6.373392, 17.359024)"><g><path d="M 1.21875 -11.734375 L 1.21875 -13.28125 L 2.84375 -13.28125 L 2.84375 -11.734375 Z M 1.21875 0 L 1.21875 -9.6875 L 2.84375 -9.6875 L 2.84375 0 Z M 1.21875 0 "/></g></g></g><g fill="#000000" fill-opacity="1"><g transform="translate(10.444279, 17.359024)"><g><path d="M 9.421875 -4.84375 C 9.421875 -3.15625 9.046875 -1.894531 8.296875 -1.0625 C 7.554688 -0.238281 6.476562 0.171875 5.0625 0.171875 C 3.644531 0.171875 2.570312 -0.253906 1.84375 -1.109375 C 1.125 -1.972656 0.765625 -3.21875 0.765625 -4.84375 C 0.765625 -8.1875 2.210938 -9.859375 5.109375 -9.859375 C 6.585938 -9.859375 7.675781 -9.453125 8.375 -8.640625 C 9.070312 -7.828125 9.421875 -6.5625 9.421875 -4.84375 Z M 7.734375 -4.84375 C 7.734375 -6.1875 7.535156 -7.160156 7.140625 -7.765625 C 6.742188 -8.367188 6.078125 -8.671875 5.140625 -8.671875 C 4.191406 -8.671875 3.507812 -8.359375 3.09375 -7.734375 C 2.675781 -7.117188 2.46875 -6.15625 2.46875 -4.84375 C 2.46875 -3.570312 2.671875 -2.613281 3.078125 -1.96875 C 3.492188 -1.332031 4.144531 -1.015625 5.03125 -1.015625 C 6 -1.015625 6.691406 -1.320312 7.109375 -1.9375 C 7.523438 -2.5625 7.734375 -3.53125 7.734375 -4.84375 Z M 7.734375 -4.84375 "/></g></g></g><g fill="#000000" fill-opacity="1"><g transform="translate(20.634915, 17.359024)"><g><path d="M 7.390625 0 L 7.390625 -6.140625 C 7.390625 -6.773438 7.320312 -7.269531 7.1875 -7.625 C 7.0625 -7.976562 6.863281 -8.234375 6.59375 -8.390625 C 6.320312 -8.546875 5.921875 -8.625 5.390625 -8.625 C 4.609375 -8.625 3.992188 -8.359375 3.546875 -7.828125 C 3.097656 -7.296875 2.875 -6.554688 2.875 -5.609375 L 2.875 0 L 1.265625 0 L 1.265625 -7.609375 C 1.265625 -8.742188 1.25 -9.4375 1.21875 -9.6875 L 2.734375 -9.6875 C 2.742188 -9.65625 2.75 -9.570312 2.75 -9.4375 C 2.757812 -9.3125 2.769531 -9.160156 2.78125 -8.984375 C 2.789062 -8.816406 2.800781 -8.5 2.8125 -8.03125 L 2.84375 -8.03125 C 3.207031 -8.695312 3.628906 -9.164062 4.109375 -9.4375 C 4.597656 -9.71875 5.207031 -9.859375 5.9375 -9.859375 C 7 -9.859375 7.773438 -9.59375 8.265625 -9.0625 C 8.753906 -8.539062 9 -7.671875 9 -6.453125 L 9 0 Z M 7.390625 0 "/></g></g></g></g></g></g></g></g></svg>