<svg xmlns="http://www.w3.org/2000/svg" xmlns:xlink="http://www.w3.org/1999/xlink" width="500" zoomAndPan="magnify" viewBox="0 0 375 374.999991" height="500" preserveAspectRatio="xMidYMid meet" version="1.0"><defs><clipPath id="27cfdb8d08"><path d="M 192 154 L 263.976562 154 L 263.976562 182 L 192 182 Z M 192 154 " clip-rule="nonzero"/></clipPath><clipPath id="a892afbbc8"><path d="M 192 193 L 263.976562 193 L 263.976562 221 L 192 221 Z M 192 193 " clip-rule="nonzero"/></clipPath><clipPath id="66edd059ea"><path d="M 108 113 L 181 113 L 181 262.886719 L 108 262.886719 Z M 108 113 " clip-rule="nonzero"/></clipPath></defs><path fill="#6344fe" d="M 183.664062 131.792969 L 183.664062 248.125 L 187.933594 250.617188 L 194.609375 254.457031 C 193.527344 258.226562 195.109375 262.410156 198.664062 264.449219 C 202.867188 266.875 208.222656 265.445312 210.648438 261.238281 C 213.054688 257.054688 211.625 251.679688 207.441406 249.253906 C 203.886719 247.214844 199.488281 247.929688 196.757812 250.75 L 187.933594 245.65625 L 187.933594 129.324219 L 196.757812 124.230469 C 199.488281 127.066406 203.886719 127.785156 207.441406 125.722656 C 211.625 123.296875 213.054688 117.941406 210.648438 113.738281 C 208.222656 109.554688 202.867188 108.125 198.664062 110.53125 C 195.109375 112.589844 193.527344 116.75 194.609375 120.523438 L 187.933594 124.378906 L 183.664062 126.851562 Z M 201.265625 259.9375 C 199.574219 258.941406 198.988281 256.773438 199.984375 255.082031 C 200.960938 253.394531 203.128906 252.808594 204.820312 253.785156 C 206.53125 254.757812 207.09375 256.925781 206.121094 258.640625 C 205.144531 260.328125 202.976562 260.914062 201.265625 259.9375 Z M 199.984375 119.914062 C 198.988281 118.203125 199.574219 116.035156 201.265625 115.058594 C 202.976562 114.085938 205.144531 114.667969 206.121094 116.359375 C 207.09375 118.050781 206.53125 120.21875 204.820312 121.195312 C 203.128906 122.191406 200.960938 121.605469 199.984375 119.914062 Z M 199.984375 119.914062 " fill-opacity="1" fill-rule="evenodd"/><g clip-path="url(#27cfdb8d08)"><path fill="#6344fe" d="M 203.128906 164.003906 L 192.550781 164.003906 L 192.550781 168.273438 L 204.90625 168.273438 L 209.199219 164.003906 L 214.441406 158.757812 L 237.398438 158.757812 L 247.171875 168.535156 C 245.15625 171.894531 245.589844 176.335938 248.496094 179.242188 C 251.921875 182.664062 257.492188 182.664062 260.914062 179.242188 C 264.339844 175.816406 264.339844 170.265625 260.914062 166.84375 C 258.011719 163.9375 253.566406 163.484375 250.207031 165.5 L 243.445312 158.757812 L 239.175781 154.464844 L 212.664062 154.464844 L 208.394531 158.757812 Z M 252.203125 170.527344 C 253.589844 169.140625 255.820312 169.140625 257.210938 170.527344 C 258.597656 171.914062 258.597656 174.167969 257.210938 175.535156 C 255.820312 176.921875 253.589844 176.921875 252.203125 175.535156 C 250.816406 174.167969 250.816406 171.914062 252.203125 170.527344 Z M 252.203125 170.527344 " fill-opacity="1" fill-rule="evenodd"/></g><path fill="#6344fe" d="M 192.550781 146.574219 L 198.230469 146.574219 L 207.550781 137.253906 L 214.378906 137.253906 C 215.351562 141.070312 218.800781 143.886719 222.898438 143.886719 C 227.730469 143.886719 231.675781 139.964844 231.675781 135.109375 C 231.675781 130.277344 227.730469 126.351562 222.898438 126.351562 C 218.800781 126.351562 215.351562 129.171875 214.378906 132.964844 L 205.773438 132.964844 L 201.480469 137.253906 L 196.453125 142.304688 L 192.550781 142.304688 Z M 219.34375 135.109375 C 219.34375 133.160156 220.945312 131.578125 222.898438 131.578125 C 224.847656 131.578125 226.453125 133.160156 226.453125 135.109375 C 226.453125 137.082031 224.847656 138.664062 222.898438 138.664062 C 220.945312 138.664062 219.34375 137.082031 219.34375 135.109375 Z M 219.34375 135.109375 " fill-opacity="1" fill-rule="evenodd"/><g clip-path="url(#a892afbbc8)"><path fill="#6344fe" d="M 198.859375 206.703125 L 192.550781 206.703125 L 192.550781 210.996094 L 203.128906 210.996094 L 208.394531 216.242188 L 212.664062 220.511719 L 239.175781 220.511719 L 250.207031 209.480469 C 253.566406 211.496094 258.011719 211.0625 260.914062 208.15625 C 264.339844 204.730469 264.339844 199.183594 260.914062 195.757812 C 257.492188 192.332031 251.921875 192.332031 248.496094 195.757812 C 245.589844 198.664062 245.15625 203.085938 247.171875 206.445312 L 237.398438 216.242188 L 214.441406 216.242188 L 209.199219 210.996094 L 204.90625 206.703125 Z M 257.210938 204.472656 C 255.820312 205.859375 253.589844 205.859375 252.203125 204.472656 C 250.816406 203.085938 250.816406 200.828125 252.203125 199.441406 C 253.589844 198.054688 255.820312 198.054688 257.210938 199.441406 C 258.597656 200.828125 258.597656 203.085938 257.210938 204.472656 Z M 257.210938 204.472656 " fill-opacity="1" fill-rule="evenodd"/></g><path fill="#6344fe" d="M 192.550781 189.644531 L 222.074219 189.644531 C 223.027344 193.4375 226.472656 196.257812 230.570312 196.257812 C 235.425781 196.257812 239.347656 192.332031 239.347656 187.5 C 239.347656 182.644531 235.425781 178.722656 230.570312 178.722656 C 226.472656 178.722656 223.027344 181.539062 222.074219 185.355469 L 192.550781 185.355469 Z M 227.035156 187.5 C 227.035156 185.527344 228.617188 183.945312 230.570312 183.945312 C 232.542969 183.945312 234.125 185.527344 234.125 187.5 C 234.125 189.449219 232.542969 191.03125 230.570312 191.03125 C 228.617188 191.03125 227.035156 189.449219 227.035156 187.5 Z M 227.035156 187.5 " fill-opacity="1" fill-rule="evenodd"/><path fill="#6344fe" d="M 202.5 232.691406 L 198.230469 228.402344 L 192.550781 228.402344 L 192.550781 232.691406 L 196.453125 232.691406 L 201.480469 237.722656 L 205.773438 242.011719 L 214.378906 242.011719 C 215.351562 245.828125 218.800781 248.644531 222.898438 248.644531 C 227.730469 248.644531 231.675781 244.722656 231.675781 239.867188 C 231.675781 235.035156 227.730469 231.109375 222.898438 231.109375 C 218.800781 231.109375 215.351562 233.929688 214.378906 237.722656 L 207.550781 237.722656 Z M 222.898438 243.421875 C 220.945312 243.421875 219.34375 241.839844 219.34375 239.867188 C 219.34375 237.917969 220.945312 236.335938 222.898438 236.335938 C 224.847656 236.335938 226.453125 237.917969 226.453125 239.867188 C 226.453125 241.839844 224.847656 243.421875 222.898438 243.421875 Z M 222.898438 243.421875 " fill-opacity="1" fill-rule="evenodd"/><path fill="#000000" d="M 143.847656 236.136719 C 143.394531 237.371094 144.011719 238.769531 145.230469 239.21875 C 146.464844 239.667969 147.828125 239.019531 148.296875 237.785156 C 150.714844 231.371094 157.914062 228.085938 164.363281 230.488281 C 165.613281 230.9375 166.964844 230.285156 167.429688 229.054688 C 167.894531 227.820312 167.296875 226.453125 166.046875 225.988281 C 157.128906 222.6875 147.179688 227.238281 143.847656 236.136719 Z M 143.847656 236.136719 " fill-opacity="1" fill-rule="nonzero"/><g clip-path="url(#66edd059ea)"><path fill="#000000" d="M 174.546875 115.121094 C 171.28125 112.988281 167.144531 112.851562 162.347656 114.667969 C 161.964844 114.785156 153.980469 117.636719 148.796875 122.535156 C 148.464844 122.519531 148.164062 122.46875 147.828125 122.46875 C 138.3125 122.46875 130.597656 130.203125 130.597656 139.738281 C 130.597656 142.003906 131.046875 144.203125 131.914062 146.269531 C 123.496094 148.585938 117.296875 156.1875 117.296875 165.320312 C 117.296875 167.054688 117.613281 168.753906 118.03125 170.417969 C 112.011719 173.953125 108.195312 180.4375 108.195312 187.503906 C 108.195312 192.601562 110.164062 197.203125 113.363281 200.71875 C 112.195312 203.285156 111.53125 206.085938 111.53125 208.953125 C 111.53125 216.9375 116.378906 224.054688 123.546875 227.152344 C 122.828125 229.035156 122.445312 231.085938 122.445312 233.136719 C 122.445312 242.667969 130.179688 250.386719 139.714844 250.386719 C 140.144531 250.386719 140.613281 250.285156 141.078125 250.253906 C 143.679688 257.386719 151.394531 262.402344 160.378906 262.402344 C 171.546875 262.402344 180.644531 254.652344 180.644531 245.152344 L 180.644531 228.285156 C 180.644531 228.285156 180.644531 228.285156 180.644531 228.253906 L 180.644531 164.4375 C 180.644531 164.4375 180.644531 164.4375 180.644531 164.417969 L 180.644531 164.402344 L 180.628906 127.101562 C 180.628906 126.769531 180.113281 118.753906 174.546875 115.121094 Z M 175.878906 152.585938 C 172.746094 149.269531 168.3125 147.167969 163.378906 147.167969 C 162.0625 147.167969 160.996094 148.238281 160.996094 149.554688 C 160.996094 150.851562 162.0625 151.9375 163.378906 151.9375 C 170.28125 151.9375 175.878906 157.535156 175.878906 164.4375 L 175.878906 216.453125 C 172.746094 213.136719 168.3125 211.019531 163.378906 211.019531 C 162.0625 211.003906 160.996094 212.070312 160.996094 213.371094 C 160.996094 214.703125 162.0625 215.753906 163.378906 215.753906 C 170.28125 215.753906 175.878906 221.386719 175.878906 228.253906 L 175.878906 245.152344 C 175.878906 252.019531 168.945312 257.652344 160.378906 257.652344 C 152.796875 257.652344 146.347656 253.253906 145.097656 247.238281 C 144.8125 245.953125 143.53125 245.152344 142.246094 245.371094 C 142.246094 245.371094 142.230469 245.371094 142.214844 245.371094 C 141.394531 245.570312 140.5625 245.636719 139.714844 245.636719 C 132.8125 245.636719 127.195312 240.035156 127.195312 233.136719 C 127.195312 230.953125 127.78125 228.835938 128.847656 226.953125 C 128.914062 226.851562 128.929688 226.71875 128.964844 226.585938 C 128.980469 226.519531 129.046875 226.488281 129.097656 226.417969 C 129.097656 226.351562 129.097656 226.253906 129.097656 226.152344 C 129.113281 226.054688 129.113281 225.953125 129.113281 225.820312 C 129.113281 225.621094 129.113281 225.4375 129.097656 225.269531 C 129.046875 225.152344 129.011719 225.054688 128.964844 224.96875 C 128.894531 224.769531 128.828125 224.636719 128.714844 224.488281 C 128.664062 224.371094 128.5625 224.285156 128.480469 224.1875 C 128.347656 224.054688 128.214844 223.953125 128.097656 223.820312 C 128.03125 223.785156 128.011719 223.753906 127.945312 223.71875 C 127.863281 223.652344 127.746094 223.652344 127.628906 223.601562 C 127.5625 223.570312 127.496094 223.535156 127.414062 223.503906 C 120.863281 221.703125 116.3125 215.71875 116.3125 208.953125 C 116.3125 207.285156 116.679688 205.636719 117.214844 204.101562 C 120.328125 206.121094 124.03125 207.351562 128.03125 207.351562 C 129.328125 207.351562 130.414062 206.285156 130.414062 204.96875 C 130.414062 203.636719 129.328125 202.554688 128.03125 202.554688 C 119.695312 202.554688 112.964844 195.804688 112.964844 187.488281 C 112.964844 181.636719 116.378906 176.304688 121.679688 173.820312 L 121.695312 173.820312 C 121.730469 173.804688 121.761719 173.769531 121.796875 173.753906 C 123.761719 172.871094 125.863281 172.417969 128.03125 172.417969 C 129.328125 172.417969 130.414062 171.351562 130.414062 170.035156 C 130.414062 168.71875 129.328125 167.6875 128.03125 167.6875 C 126.097656 167.6875 124.261719 168.035156 122.445312 168.570312 C 122.214844 167.503906 122.046875 166.417969 122.046875 165.320312 C 122.046875 157.003906 128.828125 150.253906 137.128906 150.253906 C 142.878906 150.253906 148.03125 153.4375 150.613281 158.585938 C 151.214844 159.769531 152.628906 160.21875 153.8125 159.636719 C 154.980469 159.054688 155.464844 157.636719 154.863281 156.453125 C 151.480469 149.6875 144.695312 145.488281 137.128906 145.488281 C 137.046875 145.488281 136.980469 145.503906 136.878906 145.503906 C 135.929688 143.71875 135.347656 141.769531 135.347656 139.71875 C 135.347656 132.820312 140.945312 127.21875 147.847656 127.21875 C 152.378906 127.21875 156.5625 129.6875 158.78125 133.652344 C 159.78125 135.503906 160.328125 137.601562 160.328125 139.71875 C 160.328125 141.019531 161.414062 142.101562 162.714844 142.101562 C 164.03125 142.101562 165.113281 141.019531 165.113281 139.71875 C 165.113281 136.785156 164.363281 133.886719 162.945312 131.351562 C 161.03125 127.953125 158.113281 125.386719 154.664062 123.886719 C 158.894531 120.953125 163.847656 119.1875 163.945312 119.136719 C 167.328125 117.871094 170.03125 117.851562 171.945312 119.101562 C 175.445312 121.386719 175.878906 127.238281 175.878906 127.238281 Z M 175.878906 152.585938 " fill-opacity="1" fill-rule="nonzero"/></g><path fill="#000000" d="M 150.164062 175.820312 C 149.929688 174.554688 148.679688 173.703125 147.378906 173.953125 C 146.078125 174.203125 145.261719 175.453125 145.511719 176.738281 C 146.414062 181.519531 148.945312 185.703125 152.546875 188.886719 C 152.464844 189.1875 152.414062 189.488281 152.429688 189.804688 C 152.828125 196.6875 147.578125 202.636719 140.714844 203.054688 C 139.378906 203.121094 138.394531 204.253906 138.464844 205.554688 C 138.546875 206.820312 139.597656 207.804688 140.847656 207.804688 C 140.878906 207.804688 140.929688 207.804688 141.011719 207.804688 C 149.644531 207.285156 156.363281 200.417969 157.078125 192.003906 C 160.113281 193.535156 163.414062 194.335938 166.78125 194.335938 C 168.164062 194.335938 169.546875 194.21875 170.894531 193.953125 C 172.164062 193.71875 173.011719 192.46875 172.78125 191.167969 C 172.546875 189.902344 171.246094 189.035156 169.996094 189.285156 C 165.53125 190.152344 161.03125 189.21875 157.3125 186.667969 C 153.546875 184.121094 151.011719 180.269531 150.164062 175.820312 Z M 150.164062 175.820312 " fill-opacity="1" fill-rule="nonzero"/></svg>