<svg xmlns="http://www.w3.org/2000/svg" xmlns:xlink="http://www.w3.org/1999/xlink" width="500" zoomAndPan="magnify" viewBox="0 0 375 374.999991" height="500" preserveAspectRatio="xMidYMid meet" version="1.0"><defs><clipPath id="4a9732d3ab"><path d="M 5 1.9375 L 149.96875 1.9375 L 149.96875 157.160156 L 5 157.160156 Z M 5 1.9375 " clip-rule="nonzero"/></clipPath><clipPath id="b58ce0f0ae"><path d="M 153 91 L 245 91 L 245 137 L 153 137 Z M 153 91 " clip-rule="nonzero"/></clipPath><clipPath id="bac8ed5326"><rect x="0" width="245" y="0" height="158"/></clipPath></defs><g transform="matrix(1, 0, 0, 1, 67, 108)"><g clip-path="url(#bac8ed5326)"><g clip-path="url(#4a9732d3ab)"><path fill="#000000" d="M 143.609375 80.113281 C 140.300781 76.113281 133.542969 67.945312 132.472656 66.449219 C 132.230469 65.667969 132.097656 64.792969 132.097656 63.898438 C 132.097656 62.101562 132.617188 61.257812 133.339844 60.085938 C 134.191406 58.703125 135.25 56.984375 135.175781 53.929688 C 134.90625 42.800781 131.273438 33.195312 124.066406 24.5625 C 111.601562 9.628906 93.390625 1.0625 74.101562 1.0625 L 68.332031 1.0625 C 42.277344 1.0625 18.636719 16.382812 8.109375 40.085938 C 0.980469 56.125 8.71875 70.707031 16.90625 86.148438 C 23.867188 99.273438 31.0625 112.839844 29.746094 128.417969 C 28.914062 138.214844 28.128906 147.46875 25.488281 154.078125 C 25.210938 154.773438 25.296875 155.554688 25.710938 156.171875 C 26.125 156.789062 26.824219 157.160156 27.570312 157.160156 L 97.746094 157.160156 C 98.367188 157.160156 98.960938 156.902344 99.382812 156.449219 C 99.804688 155.996094 100.023438 155.386719 99.980469 154.765625 C 99.925781 153.90625 99.894531 153.035156 99.894531 152.167969 C 99.894531 147.574219 100.707031 143.113281 102.242188 139.273438 C 102.4375 138.789062 102.914062 138.523438 103.433594 138.621094 C 105.53125 139.007812 107.6875 139.203125 109.839844 139.203125 L 117.726562 139.203125 C 126.730469 139.203125 134.054688 131.871094 134.054688 122.855469 L 134.054688 118.183594 L 134.335938 117.785156 C 135.3125 116.402344 135.601562 114.734375 135.148438 113.101562 C 134.695312 111.464844 133.59375 110.191406 132.046875 109.5 L 127.503906 107.484375 L 134.125 104.542969 C 136.386719 103.539062 137.484375 101.011719 136.671875 98.667969 L 135.976562 96.660156 L 142.425781 95.320312 C 144.9375 94.796875 146.875 93.113281 147.742188 90.699219 C 148.609375 88.285156 148.195312 85.75 146.59375 83.742188 C 146.277344 83.339844 145.160156 81.984375 143.609375 80.113281 Z M 143.523438 89.167969 C 143.183594 90.109375 142.488281 90.714844 141.511719 90.917969 L 132.570312 92.777344 C 131.9375 92.90625 131.390625 93.304688 131.074219 93.863281 C 130.757812 94.425781 130.691406 95.097656 130.90625 95.707031 L 132.433594 100.128906 C 132.476562 100.253906 132.421875 100.378906 132.304688 100.433594 L 121.066406 105.421875 C 120.253906 105.78125 119.730469 106.585938 119.730469 107.472656 C 119.730469 108.359375 120.253906 109.164062 121.066406 109.523438 L 130.222656 113.59375 C 130.546875 113.742188 130.726562 113.945312 130.820312 114.289062 C 130.914062 114.632812 130.867188 114.902344 130.664062 115.191406 L 129.976562 116.171875 C 129.710938 116.550781 129.566406 117.003906 129.566406 117.464844 L 129.566406 122.847656 C 129.566406 129.386719 124.257812 134.707031 117.722656 134.707031 L 109.835938 134.707031 C 107.957031 134.707031 106.078125 134.535156 104.242188 134.195312 C 101.609375 133.710938 99.074219 135.109375 98.074219 137.601562 C 96.332031 141.964844 95.40625 147 95.40625 152.164062 C 95.40625 152.332031 95.40625 152.5 95.410156 152.664062 L 30.71875 152.664062 C 32.761719 145.898438 33.46875 137.558594 34.214844 128.796875 C 35.644531 111.898438 28.132812 97.738281 20.871094 84.042969 C 12.878906 68.972656 5.96875 55.953125 12.207031 41.910156 C 22.015625 19.820312 44.046875 5.550781 68.335938 5.550781 L 74.109375 5.550781 C 92.066406 5.550781 109.023438 13.527344 120.632812 27.4375 C 127.160156 35.261719 130.453125 43.960938 130.695312 54.039062 C 130.738281 55.761719 130.253906 56.542969 129.527344 57.730469 C 128.679688 59.113281 127.621094 60.828125 127.621094 63.898438 C 127.621094 65.378906 127.863281 66.855469 128.320312 68.160156 C 128.535156 68.777344 128.625 69.03125 140.164062 82.980469 C 141.640625 84.765625 142.804688 86.175781 143.097656 86.539062 C 143.714844 87.316406 143.863281 88.226562 143.523438 89.167969 Z M 185.464844 107.476562 C 185.464844 108.714844 184.460938 109.722656 183.222656 109.722656 L 156.445312 109.722656 C 155.207031 109.722656 154.203125 108.714844 154.203125 107.476562 C 154.203125 106.238281 155.207031 105.230469 156.445312 105.230469 L 183.222656 105.230469 C 184.460938 105.230469 185.464844 106.238281 185.464844 107.476562 Z M 151.550781 98.074219 C 150.90625 97.015625 151.238281 95.636719 152.292969 94.988281 L 175.128906 80.980469 C 176.183594 80.332031 177.5625 80.664062 178.210938 81.71875 C 178.855469 82.777344 178.523438 84.160156 177.46875 84.804688 L 154.636719 98.816406 C 154.273438 99.039062 153.867188 99.148438 153.46875 99.148438 C 152.714844 99.144531 151.976562 98.761719 151.550781 98.074219 Z M 178.210938 133.234375 C 177.789062 133.925781 177.050781 134.308594 176.296875 134.308594 C 175.898438 134.308594 175.492188 134.199219 175.128906 133.976562 L 152.296875 119.96875 C 151.238281 119.320312 150.910156 117.933594 151.554688 116.878906 C 152.203125 115.824219 153.585938 115.492188 154.636719 116.140625 L 177.46875 130.148438 C 178.523438 130.796875 178.855469 132.175781 178.210938 133.234375 Z M 178.210938 133.234375 " fill-opacity="1" fill-rule="nonzero"/></g><path stroke-linecap="butt" transform="matrix(0.434826, 0, 0, 0.434826, 146.60673, 85.598601)" fill="none" stroke-linejoin="miter" d="M 26.246794 52.227711 L 53.870959 52.227711 C 64.920624 52.227711 73.868159 43.280177 73.868159 32.230511 L 73.868159 -0.00217245 " stroke="#6344fe" stroke-width="7" stroke-opacity="1" stroke-miterlimit="4"/><path stroke-linecap="round" transform="matrix(0.434826, 0, 0, 0.434826, 146.60673, 85.598601)" fill="none" stroke-linejoin="round" d="M 3.500653 52.227711 C 3.500653 46.433374 8.199007 41.73502 14.002327 41.73502 C 19.796664 41.73502 24.504001 46.433374 24.504001 52.227711 C 24.504001 58.031032 19.796664 62.729386 14.002327 62.729386 C 8.199007 62.729386 3.500653 58.031032 3.500653 52.227711 " stroke="#6344fe" stroke-width="7" stroke-opacity="1" stroke-miterlimit="4"/><path stroke-linecap="butt" transform="matrix(0.434826, 0, 0, 0.434826, 177.206053, 54.472989)" fill="none" stroke-linejoin="miter" d="M 3.496818 75.316633 L 3.496818 65.057512 C 3.496818 59.388944 8.096354 54.798391 13.755939 54.798391 L 51.100216 54.798391 C 62.149882 54.798391 71.106399 45.841874 71.106399 34.801191 L 71.106399 17.642767 C 71.106399 9.836133 77.439744 3.502788 85.246378 3.502788 L 99.395341 3.502788 " stroke="#6344fe" stroke-width="7" stroke-opacity="1" stroke-miterlimit="4"/><path stroke-linecap="round" transform="matrix(0.434826, 0, 0, 0.434826, 177.206053, 54.472989)" fill="none" stroke-linejoin="round" d="M 122.150465 3.502788 C 122.150465 9.297125 117.443128 14.004463 111.648791 14.004463 C 105.845471 14.004463 101.147117 9.297125 101.147117 3.502788 C 101.147117 -2.300532 105.845471 -6.998886 111.648791 -6.998886 C 117.443128 -6.998886 122.150465 -2.300532 122.150465 3.502788 " stroke="#6344fe" stroke-width="7" stroke-opacity="1" stroke-miterlimit="4"/><path stroke-linecap="butt" transform="matrix(0.434826, -0.000000000000000539, 0.000000000000000539, 0.434826, 191.580828, 76.771745)" fill="none" stroke-linejoin="miter" d="M 0.00276646 3.498462 L 66.022274 3.498462 " stroke="#6344fe" stroke-width="7" stroke-opacity="1" stroke-miterlimit="4"/><path stroke-linecap="round" transform="matrix(0.434826, -0.000000000000000539, 0.000000000000000539, 0.434826, 191.580828, 76.771745)" fill="none" stroke-linejoin="round" d="M 88.768415 3.498462 C 88.768415 9.301783 84.070061 14.000136 78.266741 14.000136 C 72.472404 14.000136 67.77405 9.301783 67.77405 3.498462 C 67.77405 -2.295875 72.472404 -7.003212 78.266741 -7.003212 C 84.070061 -7.003212 88.768415 -2.295875 88.768415 3.498462 " stroke="#6344fe" stroke-width="7" stroke-opacity="1" stroke-miterlimit="4"/><path stroke-linecap="butt" transform="matrix(0.434826, 0.000000000000000711, -0.000000000000000711, 0.434826, 171.310847, 106.788559)" fill="none" stroke-linejoin="miter" d="M 0.00380094 3.495726 L 43.322084 3.495726 " stroke="#6344fe" stroke-width="7" stroke-opacity="1" stroke-miterlimit="4"/><path stroke-linecap="round" transform="matrix(0.434826, 0.000000000000000711, -0.000000000000000711, 0.434826, 171.310847, 106.788559)" fill="none" stroke-linejoin="round" d="M 66.068226 3.495726 C 66.068226 9.299046 61.369872 13.9974 55.566551 13.9974 C 49.772214 13.9974 45.064877 9.299046 45.064877 3.495726 C 45.064877 -2.298611 49.772214 -6.996965 55.566551 -6.996965 C 61.369872 -6.996965 66.068226 -2.298611 66.068226 3.495726 " stroke="#6344fe" stroke-width="7" stroke-opacity="1" stroke-miterlimit="4"/><g clip-path="url(#b58ce0f0ae)"><path stroke-linecap="butt" transform="matrix(0.434826, 0, 0, 0.434826, 168.729501, 108.310459)" fill="none" stroke-linejoin="miter" d="M 3.496795 -0.00429055 L 3.496795 12.976821 C 3.496795 16.426473 4.871265 19.723405 7.305785 22.157925 C 9.740305 24.592445 13.037238 25.957932 16.477906 25.957932 L 160.66257 25.957932 C 160.743421 25.957932 160.806305 26.020817 160.806305 26.101668 L 160.806305 26.254387 " stroke="#6344fe" stroke-width="7" stroke-opacity="1" stroke-miterlimit="4"/></g><path stroke-linecap="round" transform="matrix(0.434826, 0, 0, 0.434826, 168.729501, 108.310459)" fill="none" stroke-linejoin="round" d="M 160.806305 3.499262 C 166.609625 3.499262 171.307979 8.197616 171.307979 14.000936 C 171.307979 19.795273 166.609625 24.502611 160.806305 24.502611 C 155.011968 24.502611 150.313614 19.795273 150.313614 14.000936 C 150.313614 8.197616 155.011968 3.499262 160.806305 3.499262 " stroke="#6344fe" stroke-width="7" stroke-opacity="1" stroke-miterlimit="4"/></g></g></svg>