<svg xmlns="http://www.w3.org/2000/svg" xmlns:xlink="http://www.w3.org/1999/xlink" width="500" zoomAndPan="magnify" viewBox="0 0 375 374.999991" height="500" preserveAspectRatio="xMidYMid meet" version="1.0"><defs><clipPath id="259e26ed6d"><path d="M 170.523438 189.082031 L 178.023438 189.082031 L 178.023438 196.582031 L 170.523438 196.582031 Z M 170.523438 189.082031 " clip-rule="nonzero"/></clipPath><clipPath id="d95288c283"><path d="M 175.335938 220.144531 L 182.835938 220.144531 L 182.835938 227.644531 L 175.335938 227.644531 Z M 175.335938 220.144531 " clip-rule="nonzero"/></clipPath><clipPath id="e069861103"><path d="M 154.042969 235.484375 L 161.542969 235.484375 L 161.542969 242.984375 L 154.042969 242.984375 Z M 154.042969 235.484375 " clip-rule="nonzero"/></clipPath><clipPath id="b0789fdcd5"><path d="M 225.585938 227.1875 L 233.085938 227.1875 L 233.085938 234.6875 L 225.585938 234.6875 Z M 225.585938 227.1875 " clip-rule="nonzero"/></clipPath><clipPath id="262d5f8966"><path d="M 194.6875 206.949219 L 202.1875 206.949219 L 202.1875 214.449219 L 194.6875 214.449219 Z M 194.6875 206.949219 " clip-rule="nonzero"/></clipPath><clipPath id="57530f2f96"><path d="M 132 112.5 L 243 112.5 L 243 262.5 L 132 262.5 Z M 132 112.5 " clip-rule="nonzero"/></clipPath></defs><path stroke-linecap="butt" transform="matrix(0.75, 0, 0, 0.75, 163.190459, 222.40872)" fill="none" stroke-linejoin="miter" d="M 2.001264 0.00191527 L 2.001264 14.501916 C 2.001264 16.194625 2.673139 17.824833 3.876264 19.02275 C 5.074181 20.220667 6.699181 20.89775 8.397097 20.89775 C 10.095014 20.89775 11.720014 21.569625 12.923139 22.77275 C 14.121056 23.970667 14.792931 25.595667 14.792931 27.293584 L 14.792931 41.793585 " stroke="#6344fe" stroke-width="4" stroke-opacity="1" stroke-miterlimit="4"/><path stroke-linecap="butt" transform="matrix(0.75, 0, 0, 0.75, 174.287043, 236.68251)" fill="none" stroke-linejoin="miter" d="M -0.00251521 11.996237 L 39.653737 11.996237 C 42.966238 11.996237 45.653738 9.308737 45.653738 5.996237 L 45.653738 0.00144492 " stroke="#6344fe" stroke-width="4" stroke-opacity="1" stroke-miterlimit="4"/><path stroke-linecap="butt" transform="matrix(0.75, 0, 0, 0.75, 207.025508, 209.212033)" fill="none" stroke-linejoin="miter" d="M 2.002448 36.628751 L 2.002448 5.399582 C 2.002448 4.49854 2.356615 3.633957 2.99724 2.993332 C 3.632657 2.357915 4.49724 1.99854 5.398282 1.99854 L 8.799324 1.99854 " stroke="#6344fe" stroke-width="4" stroke-opacity="1" stroke-miterlimit="4"/><path stroke-linecap="butt" transform="matrix(0.75, 0, 0, 0.75, 208.525508, 229.451733)" fill="none" stroke-linejoin="miter" d="M 0.00244819 2.001856 L 24.50245 2.001856 " stroke="#6344fe" stroke-width="4" stroke-opacity="1" stroke-miterlimit="4"/><path stroke-linecap="butt" transform="matrix(0.75, 0, 0, 0.75, 148.425508, 214.994532)" fill="none" stroke-linejoin="miter" d="M 0.000363862 2.002082 L 13.625365 2.002082 C 14.937865 2.002082 16.193073 2.522915 17.120157 3.449999 C 18.04724 4.377082 18.568073 5.632291 18.568073 6.944791 C 18.568073 8.252082 19.088907 9.512499 20.01599 10.439583 C 20.943074 11.366666 22.20349 11.887499 23.510782 11.887499 L 37.140991 11.887499 " stroke="#6344fe" stroke-width="4" stroke-opacity="1" stroke-miterlimit="4"/><path stroke-linecap="butt" transform="matrix(0.75, 0, 0, 0.75, 140.73666, 191.34743)" fill="none" stroke-linejoin="miter" d="M 41.793831 2.000302 L 27.29383 2.000302 C 25.595913 2.000302 23.970913 2.672177 22.772996 3.875302 C 21.569871 5.073219 20.897996 6.703427 20.897996 8.396136 C 20.897996 10.094053 20.220913 11.724261 19.022996 12.922178 C 17.825079 14.120094 16.194871 14.797178 14.502163 14.797178 L 0.00216159 14.797178 " stroke="#6344fe" stroke-width="4" stroke-opacity="1" stroke-miterlimit="4"/><path stroke-linecap="butt" transform="matrix(0.75, 0, 0, 0.75, 147.312036, 202.444031)" fill="none" stroke-linejoin="miter" d="M 2.000619 0.00170906 L 2.000619 16.829835 C 2.000619 20.142335 4.682911 22.824627 7.995411 22.824627 C 11.307912 22.824627 13.995412 25.512127 13.995412 28.824628 L 13.995412 45.652754 " stroke="#6344fe" stroke-width="4" stroke-opacity="1" stroke-miterlimit="4"/><path stroke-linecap="butt" transform="matrix(0.75, 0, 0, 0.75, 206.884196, 181.837399)" fill="none" stroke-linejoin="miter" d="M 1.998156 37.138678 L 1.998156 23.513678 C 1.998156 22.201177 2.518989 20.945969 3.446073 20.018886 C 4.373156 19.091802 5.633573 18.570969 6.940865 18.570969 C 8.253365 18.570969 9.508573 18.050136 10.435656 17.123052 C 11.36274 16.195969 11.883573 14.935552 11.883573 13.62826 L 11.883573 -0.00194901 " stroke="#6344fe" stroke-width="4" stroke-opacity="1" stroke-miterlimit="4"/><path stroke-linecap="butt" transform="matrix(0.75, 0, 0, 0.75, 200.933677, 200.21524)" fill="none" stroke-linejoin="miter" d="M -0.000110874 13.994265 L 16.828015 13.994265 C 20.140515 13.994265 22.828016 11.311973 22.828016 7.999473 C 22.828016 4.686972 25.510307 1.999472 28.822808 1.999472 L 45.650934 1.999472 " stroke="#6344fe" stroke-width="4" stroke-opacity="1" stroke-miterlimit="4"/><g clip-path="url(#259e26ed6d)"><path fill="#6344fe" d="M 174.285156 189.082031 C 172.207031 189.082031 170.523438 190.765625 170.523438 192.84375 C 170.523438 194.921875 172.207031 196.605469 174.285156 196.605469 C 176.363281 196.605469 178.046875 194.921875 178.046875 192.84375 C 178.046875 190.765625 176.363281 189.082031 174.285156 189.082031 Z M 174.285156 194.679688 C 173.273438 194.679688 172.453125 193.859375 172.453125 192.851562 C 172.453125 191.839844 173.273438 191.023438 174.285156 191.023438 C 175.292969 191.023438 176.113281 191.839844 176.113281 192.851562 C 176.113281 193.859375 175.292969 194.679688 174.285156 194.679688 Z M 174.285156 194.679688 " fill-opacity="1" fill-rule="nonzero"/></g><g clip-path="url(#d95288c283)"><path fill="#6344fe" d="M 179.097656 220.144531 C 177.019531 220.144531 175.335938 221.828125 175.335938 223.90625 C 175.335938 225.984375 177.019531 227.667969 179.097656 227.667969 C 181.175781 227.667969 182.859375 225.984375 182.859375 223.90625 C 182.859375 221.828125 181.175781 220.144531 179.097656 220.144531 Z M 179.097656 225.742188 C 178.089844 225.742188 177.269531 224.921875 177.269531 223.910156 C 177.269531 222.902344 178.089844 222.082031 179.097656 222.082031 C 180.109375 222.082031 180.929688 222.902344 180.929688 223.910156 C 180.929688 224.921875 180.109375 225.742188 179.097656 225.742188 Z M 179.097656 225.742188 " fill-opacity="1" fill-rule="nonzero"/></g><g clip-path="url(#e069861103)"><path fill="#6344fe" d="M 157.804688 235.480469 C 155.726562 235.480469 154.042969 237.167969 154.042969 239.246094 C 154.042969 241.320312 155.726562 243.007812 157.804688 243.007812 C 159.882812 243.007812 161.566406 241.320312 161.566406 239.246094 C 161.566406 237.167969 159.882812 235.480469 157.804688 235.480469 Z M 157.804688 241.078125 C 156.796875 241.078125 155.976562 240.261719 155.976562 239.25 C 155.976562 238.238281 156.796875 237.421875 157.804688 237.421875 C 158.816406 237.421875 159.636719 238.238281 159.636719 239.25 C 159.636719 240.261719 158.816406 241.078125 157.804688 241.078125 Z M 157.804688 241.078125 " fill-opacity="1" fill-rule="nonzero"/></g><g clip-path="url(#b0789fdcd5)"><path fill="#6344fe" d="M 229.347656 227.1875 C 227.269531 227.1875 225.585938 228.871094 225.585938 230.949219 C 225.585938 233.027344 227.269531 234.710938 229.347656 234.710938 C 231.425781 234.710938 233.109375 233.027344 233.109375 230.949219 C 233.109375 228.871094 231.425781 227.1875 229.347656 227.1875 Z M 229.347656 232.785156 C 228.339844 232.785156 227.519531 231.964844 227.519531 230.957031 C 227.519531 229.945312 228.339844 229.125 229.347656 229.125 C 230.359375 229.125 231.179688 229.945312 231.179688 230.957031 C 231.179688 231.964844 230.359375 232.785156 229.347656 232.785156 Z M 229.347656 232.785156 " fill-opacity="1" fill-rule="nonzero"/></g><g clip-path="url(#262d5f8966)"><path fill="#6344fe" d="M 198.449219 206.945312 C 196.371094 206.945312 194.6875 208.632812 194.6875 210.710938 C 194.6875 212.785156 196.371094 214.472656 198.449219 214.472656 C 200.527344 214.472656 202.210938 212.785156 202.210938 210.710938 C 202.210938 208.632812 200.527344 206.945312 198.449219 206.945312 Z M 198.449219 212.542969 C 197.4375 212.542969 196.621094 211.726562 196.621094 210.714844 C 196.621094 209.707031 197.4375 208.886719 198.449219 208.886719 C 199.460938 208.886719 200.277344 209.707031 200.277344 210.714844 C 200.277344 211.726562 199.460938 212.542969 198.449219 212.542969 Z M 198.449219 212.542969 " fill-opacity="1" fill-rule="nonzero"/></g><g clip-path="url(#57530f2f96)"><path fill="#000000" d="M 229.226562 174.097656 L 229.226562 154.230469 C 229.226562 131.191406 210.480469 112.445312 187.441406 112.445312 C 164.398438 112.445312 145.65625 131.191406 145.65625 154.230469 L 145.65625 174.101562 C 137.84375 176.402344 132.125 183.628906 132.125 192.175781 L 132.125 243.585938 C 132.125 253.980469 140.582031 262.4375 150.976562 262.4375 L 223.90625 262.4375 C 234.300781 262.4375 242.757812 253.980469 242.757812 243.585938 L 242.757812 192.175781 C 242.757812 183.628906 237.035156 176.402344 229.226562 174.097656 Z M 187.441406 121.871094 C 205.285156 121.871094 219.800781 136.386719 219.800781 154.230469 L 219.800781 173.324219 L 155.082031 173.324219 L 155.082031 154.230469 C 155.082031 136.386719 169.597656 121.871094 187.441406 121.871094 Z M 233.332031 243.582031 C 233.332031 248.78125 229.101562 253.011719 223.90625 253.011719 L 150.976562 253.011719 C 145.777344 253.011719 141.550781 248.78125 141.550781 243.582031 L 141.550781 192.175781 C 141.550781 187.890625 144.425781 184.273438 148.34375 183.128906 L 226.539062 183.128906 C 230.457031 184.273438 233.332031 187.890625 233.332031 192.175781 Z M 233.332031 243.582031 " fill-opacity="1" fill-rule="nonzero"/></g><path fill="#000000" d="M 197.265625 213.054688 C 197.265625 207.628906 192.867188 203.230469 187.441406 203.230469 C 182.015625 203.230469 177.617188 207.628906 177.617188 213.054688 C 177.617188 216.773438 179.683594 220.007812 182.726562 221.675781 L 182.726562 230.847656 C 182.726562 233.449219 184.839844 235.5625 187.441406 235.5625 C 190.042969 235.5625 192.15625 233.449219 192.15625 230.847656 L 192.15625 221.675781 C 195.199219 220.007812 197.265625 216.773438 197.265625 213.054688 Z M 197.265625 213.054688 " fill-opacity="1" fill-rule="nonzero"/></svg>